<mxfile host="app.diagrams.net" modified="2024-04-03T06:06:15.614Z" agent="Mozilla/5.0 (Windows NT 10.0; Win64; x64) AppleWebKit/537.36 (KHTML, like Gecko) Chrome/123.0.0.0 Safari/537.36" etag="i0g1NGawTTMBFW_IoEw0" version="24.2.1" type="device">
  <diagram name="Page-1" id="Er30enwyCkXBgEAXZeNN">
    <mxGraphModel dx="1964" dy="1700" grid="1" gridSize="10" guides="1" tooltips="1" connect="1" arrows="1" fold="1" page="1" pageScale="1" pageWidth="850" pageHeight="1100" math="0" shadow="0">
      <root>
        <mxCell id="0" />
        <mxCell id="1" parent="0" />
        <mxCell id="ZQjCePXqKcANWP6ZDQZR-1" value="" style="rounded=0;whiteSpace=wrap;html=1;" vertex="1" parent="1">
          <mxGeometry x="-130" y="-80" width="330" height="680" as="geometry" />
        </mxCell>
        <mxCell id="ZQjCePXqKcANWP6ZDQZR-2" value="&lt;span style=&quot;font-size: 25px;&quot;&gt;&lt;b&gt;LOGO&lt;/b&gt;&lt;/span&gt;" style="rounded=1;whiteSpace=wrap;html=1;fillColor=#1ba1e2;strokeColor=#006EAF;fontColor=#ffffff;" vertex="1" parent="1">
          <mxGeometry x="-100" y="-70" width="120" height="50" as="geometry" />
        </mxCell>
        <mxCell id="ZQjCePXqKcANWP6ZDQZR-3" value="" style="rounded=0;whiteSpace=wrap;html=1;" vertex="1" parent="1">
          <mxGeometry x="-90" y="20" width="120" height="20" as="geometry" />
        </mxCell>
        <mxCell id="ZQjCePXqKcANWP6ZDQZR-5" value="" style="rounded=0;whiteSpace=wrap;html=1;" vertex="1" parent="1">
          <mxGeometry x="-70" y="50" width="120" height="20" as="geometry" />
        </mxCell>
        <mxCell id="ZQjCePXqKcANWP6ZDQZR-7" value="" style="whiteSpace=wrap;html=1;aspect=fixed;" vertex="1" parent="1">
          <mxGeometry x="80" y="10" width="100" height="100" as="geometry" />
        </mxCell>
        <mxCell id="ZQjCePXqKcANWP6ZDQZR-8" value="" style="endArrow=none;html=1;rounded=0;" edge="1" parent="1">
          <mxGeometry width="50" height="50" relative="1" as="geometry">
            <mxPoint x="-130" y="120" as="sourcePoint" />
            <mxPoint x="190" y="120" as="targetPoint" />
          </mxGeometry>
        </mxCell>
        <mxCell id="ZQjCePXqKcANWP6ZDQZR-19" value="" style="shape=ext;double=1;rounded=0;whiteSpace=wrap;html=1;" vertex="1" parent="1">
          <mxGeometry x="-60" y="150" width="160" height="90" as="geometry" />
        </mxCell>
        <mxCell id="ZQjCePXqKcANWP6ZDQZR-20" value="" style="shape=ext;double=1;rounded=0;whiteSpace=wrap;html=1;" vertex="1" parent="1">
          <mxGeometry x="-100" y="280" width="140" height="80" as="geometry" />
        </mxCell>
        <mxCell id="ZQjCePXqKcANWP6ZDQZR-22" style="edgeStyle=orthogonalEdgeStyle;rounded=0;orthogonalLoop=1;jettySize=auto;html=1;exitX=0.5;exitY=1;exitDx=0;exitDy=0;" edge="1" parent="1" source="ZQjCePXqKcANWP6ZDQZR-19" target="ZQjCePXqKcANWP6ZDQZR-19">
          <mxGeometry relative="1" as="geometry" />
        </mxCell>
        <mxCell id="ZQjCePXqKcANWP6ZDQZR-23" value="" style="shape=ext;double=1;rounded=0;whiteSpace=wrap;html=1;" vertex="1" parent="1">
          <mxGeometry x="-20" y="390" width="150" height="80" as="geometry" />
        </mxCell>
        <mxCell id="ZQjCePXqKcANWP6ZDQZR-29" value="" style="rounded=0;whiteSpace=wrap;html=1;" vertex="1" parent="1">
          <mxGeometry x="-50" y="170" width="120" height="10" as="geometry" />
        </mxCell>
        <mxCell id="ZQjCePXqKcANWP6ZDQZR-31" value="" style="endArrow=none;html=1;rounded=0;" edge="1" parent="1">
          <mxGeometry width="50" height="50" relative="1" as="geometry">
            <mxPoint x="-70" y="330" as="sourcePoint" />
            <mxPoint x="10" y="330" as="targetPoint" />
          </mxGeometry>
        </mxCell>
        <mxCell id="ZQjCePXqKcANWP6ZDQZR-32" value="" style="endArrow=none;html=1;rounded=0;entryX=0.857;entryY=0.5;entryDx=0;entryDy=0;entryPerimeter=0;" edge="1" parent="1" target="ZQjCePXqKcANWP6ZDQZR-20">
          <mxGeometry width="50" height="50" relative="1" as="geometry">
            <mxPoint x="-90" y="319.5" as="sourcePoint" />
            <mxPoint x="-10" y="319.5" as="targetPoint" />
          </mxGeometry>
        </mxCell>
        <mxCell id="ZQjCePXqKcANWP6ZDQZR-33" value="" style="endArrow=none;html=1;rounded=0;entryX=0.75;entryY=0.667;entryDx=0;entryDy=0;entryPerimeter=0;" edge="1" parent="1" target="ZQjCePXqKcANWP6ZDQZR-19">
          <mxGeometry width="50" height="50" relative="1" as="geometry">
            <mxPoint x="-40" y="210" as="sourcePoint" />
            <mxPoint x="40" y="210" as="targetPoint" />
          </mxGeometry>
        </mxCell>
        <mxCell id="ZQjCePXqKcANWP6ZDQZR-34" value="" style="rounded=0;whiteSpace=wrap;html=1;" vertex="1" parent="1">
          <mxGeometry x="-90" y="290" width="120" height="10" as="geometry" />
        </mxCell>
        <mxCell id="ZQjCePXqKcANWP6ZDQZR-35" value="" style="rounded=0;whiteSpace=wrap;html=1;" vertex="1" parent="1">
          <mxGeometry x="-5" y="400" width="120" height="10" as="geometry" />
        </mxCell>
        <mxCell id="ZQjCePXqKcANWP6ZDQZR-36" value="" style="endArrow=none;html=1;rounded=0;" edge="1" parent="1">
          <mxGeometry width="50" height="50" relative="1" as="geometry">
            <mxPoint x="-10" y="429.5" as="sourcePoint" />
            <mxPoint x="110" y="429.5" as="targetPoint" />
          </mxGeometry>
        </mxCell>
        <mxCell id="ZQjCePXqKcANWP6ZDQZR-37" value="" style="endArrow=none;html=1;rounded=0;" edge="1" parent="1">
          <mxGeometry width="50" height="50" relative="1" as="geometry">
            <mxPoint y="440" as="sourcePoint" />
            <mxPoint x="80" y="440" as="targetPoint" />
          </mxGeometry>
        </mxCell>
        <mxCell id="ZQjCePXqKcANWP6ZDQZR-41" value="" style="line;strokeWidth=2;direction=south;html=1;" vertex="1" parent="1">
          <mxGeometry x="420" y="540" width="10" height="160" as="geometry" />
        </mxCell>
        <mxCell id="ZQjCePXqKcANWP6ZDQZR-42" value="" style="line;strokeWidth=2;html=1;" vertex="1" parent="1">
          <mxGeometry x="-130" y="480" width="330" height="10" as="geometry" />
        </mxCell>
        <mxCell id="ZQjCePXqKcANWP6ZDQZR-50" value="" style="edgeStyle=orthogonalEdgeStyle;rounded=0;orthogonalLoop=1;jettySize=auto;html=1;" edge="1" parent="1" target="ZQjCePXqKcANWP6ZDQZR-42">
          <mxGeometry relative="1" as="geometry">
            <mxPoint x="30" y="490" as="sourcePoint" />
          </mxGeometry>
        </mxCell>
        <mxCell id="ZQjCePXqKcANWP6ZDQZR-51" value="" style="verticalLabelPosition=bottom;verticalAlign=top;html=1;shape=mxgraph.basic.x;fillColor=#FF3333;fontColor=#ffffff;strokeColor=#B20000;" vertex="1" parent="1">
          <mxGeometry x="-120" y="515" width="60" height="70" as="geometry" />
        </mxCell>
        <mxCell id="ZQjCePXqKcANWP6ZDQZR-52" value="" style="verticalLabelPosition=bottom;verticalAlign=top;html=1;shape=mxgraph.basic.x;fillColor=#FF3333;fontColor=#ffffff;strokeColor=#B20000;" vertex="1" parent="1">
          <mxGeometry x="-5" y="515" width="55" height="70" as="geometry" />
        </mxCell>
        <mxCell id="ZQjCePXqKcANWP6ZDQZR-54" value="" style="verticalLabelPosition=bottom;verticalAlign=top;html=1;shape=mxgraph.basic.x;fillColor=#FF3333;fontColor=#ffffff;strokeColor=#B20000;" vertex="1" parent="1">
          <mxGeometry x="100" y="515" width="50" height="70" as="geometry" />
        </mxCell>
        <mxCell id="ZQjCePXqKcANWP6ZDQZR-63" value="" style="endArrow=none;html=1;rounded=0;" edge="1" parent="1">
          <mxGeometry width="50" height="50" relative="1" as="geometry">
            <mxPoint x="-50" y="194.5" as="sourcePoint" />
            <mxPoint x="60" y="194.5" as="targetPoint" />
          </mxGeometry>
        </mxCell>
        <mxCell id="ZQjCePXqKcANWP6ZDQZR-64" value="&lt;b&gt;&lt;font style=&quot;font-size: 15px;&quot;&gt;STUDENT&lt;/font&gt;&lt;/b&gt;" style="text;html=1;align=center;verticalAlign=middle;resizable=0;points=[];autosize=1;strokeColor=none;fillColor=none;" vertex="1" parent="1">
          <mxGeometry x="-35" y="210" width="90" height="30" as="geometry" />
        </mxCell>
        <mxCell id="ZQjCePXqKcANWP6ZDQZR-65" value="&lt;font style=&quot;font-size: 15px;&quot;&gt;&lt;b&gt;TEACHER&lt;/b&gt;&lt;/font&gt;" style="text;html=1;align=center;verticalAlign=middle;resizable=0;points=[];autosize=1;strokeColor=none;fillColor=none;" vertex="1" parent="1">
          <mxGeometry x="-80" y="330" width="100" height="30" as="geometry" />
        </mxCell>
        <mxCell id="ZQjCePXqKcANWP6ZDQZR-73" value="&lt;font style=&quot;font-size: 15px;&quot;&gt;&lt;b&gt;PARENT&lt;/b&gt;&lt;/font&gt;" style="text;html=1;align=center;verticalAlign=middle;resizable=0;points=[];autosize=1;strokeColor=none;fillColor=none;" vertex="1" parent="1">
          <mxGeometry y="440" width="80" height="30" as="geometry" />
        </mxCell>
        <mxCell id="ZQjCePXqKcANWP6ZDQZR-74" value="&lt;font style=&quot;font-size: 14px;&quot;&gt;USER&lt;/font&gt;" style="text;html=1;align=center;verticalAlign=middle;resizable=0;points=[];autosize=1;strokeColor=none;fillColor=none;" vertex="1" parent="1">
          <mxGeometry x="-30" y="120" width="60" height="30" as="geometry" />
        </mxCell>
        <mxCell id="ZQjCePXqKcANWP6ZDQZR-75" value="&lt;font style=&quot;font-size: 14px;&quot;&gt;FEATURES&lt;/font&gt;" style="text;html=1;align=center;verticalAlign=middle;resizable=0;points=[];autosize=1;strokeColor=none;fillColor=none;" vertex="1" parent="1">
          <mxGeometry x="-27.5" y="480" width="100" height="30" as="geometry" />
        </mxCell>
        <mxCell id="ZQjCePXqKcANWP6ZDQZR-76" value="&lt;font style=&quot;font-size: 14px;&quot;&gt;School management System&lt;/font&gt;" style="text;html=1;align=center;verticalAlign=middle;resizable=0;points=[];autosize=1;strokeColor=none;fillColor=none;" vertex="1" parent="1">
          <mxGeometry x="-120" y="-10" width="200" height="30" as="geometry" />
        </mxCell>
      </root>
    </mxGraphModel>
  </diagram>
</mxfile>
